<?xml version="1.0" encoding="iso-8859-1"?>
<!-- Generator: Adobe Illustrator 19.0.0, SVG Export Plug-In . SVG Version: 6.00 Build 0)  -->
<svg version="1.1" id="Capa_1" xmlns="http://www.w3.org/2000/svg" xmlns:xlink="http://www.w3.org/1999/xlink" x="0px" y="0px"
	 viewBox="0 0 512 512" style="enable-background:new 0 0 512 512;" xml:space="preserve">
<g>
	<g>
		<path d="M256,0c-83.816,0-152,68.184-152,152c0,4.424,3.576,8,8,8s8-3.576,8-8c0-74.992,61.008-136,136-136s136,61.008,136,136
			c0,4.424,3.576,8,8,8s8-3.576,8-8C408,68.184,339.816,0,256,0z"/>
	</g>
</g>
<g>
	<g>
		<path d="M456,304H56c-4.424,0-8,3.576-8,8s3.576,8,8,8h400c4.424,0,8-3.576,8-8S460.424,304,456,304z"/>
	</g>
</g>
<g>
	<g>
		<path d="M456,472H56c-4.424,0-8,3.576-8,8s3.576,8,8,8h400c4.424,0,8-3.576,8-8S460.424,472,456,472z"/>
	</g>
</g>
<g>
	<g>
		<path d="M88,304c-4.424,0-8,3.576-8,8v168c0,4.424,3.576,8,8,8s8-3.576,8-8V312C96,307.576,92.424,304,88,304z"/>
	</g>
</g>
<g>
	<g>
		<path d="M136,304c-4.424,0-8,3.576-8,8v168c0,4.424,3.576,8,8,8s8-3.576,8-8V312C144,307.576,140.424,304,136,304z"/>
	</g>
</g>
<g>
	<g>
		<path d="M184,304c-4.424,0-8,3.576-8,8v168c0,4.424,3.576,8,8,8s8-3.576,8-8V312C192,307.576,188.424,304,184,304z"/>
	</g>
</g>
<g>
	<g>
		<path d="M232,304c-4.424,0-8,3.576-8,8v168c0,4.424,3.576,8,8,8s8-3.576,8-8V312C240,307.576,236.424,304,232,304z"/>
	</g>
</g>
<g>
	<g>
		<path d="M280,304c-4.424,0-8,3.576-8,8v168c0,4.424,3.576,8,8,8s8-3.576,8-8V312C288,307.576,284.424,304,280,304z"/>
	</g>
</g>
<g>
	<g>
		<path d="M328,304c-4.424,0-8,3.576-8,8v168c0,4.424,3.576,8,8,8s8-3.576,8-8V312C336,307.576,332.424,304,328,304z"/>
	</g>
</g>
<g>
	<g>
		<path d="M376,304c-4.424,0-8,3.576-8,8v168c0,4.424,3.576,8,8,8s8-3.576,8-8V312C384,307.576,380.424,304,376,304z"/>
	</g>
</g>
<g>
	<g>
		<path d="M424,304c-4.424,0-8,3.576-8,8v168c0,4.424,3.576,8,8,8s8-3.576,8-8V312C432,307.576,428.424,304,424,304z"/>
	</g>
</g>
<g>
	<g>
		<path d="M104,496c-4.416,0-8-3.584-8-8c0-4.424-3.576-8-8-8s-8,3.576-8,8c0,13.232,10.768,24,24,24c4.424,0,8-3.576,8-8
			S108.424,496,104,496z"/>
	</g>
</g>
<g>
	<g>
		<path d="M88,472c-4.424,0-8,3.576-8,8v8c0,4.424,3.576,8,8,8s8-3.576,8-8v-8C96,475.576,92.424,472,88,472z"/>
	</g>
</g>
<g>
	<g>
		<path d="M424,480c-4.424,0-8,3.576-8,8c0,4.416-3.584,8-8,8c-4.424,0-8,3.576-8,8s3.576,8,8,8c13.232,0,24-10.768,24-24
			C432,483.576,428.424,480,424,480z"/>
	</g>
</g>
<g>
	<g>
		<path d="M424,472c-4.424,0-8,3.576-8,8v8c0,4.424,3.576,8,8,8s8-3.576,8-8v-8C432,475.576,428.424,472,424,472z"/>
	</g>
</g>
<g>
	<g>
		<path d="M408,496H104c-4.424,0-8,3.576-8,8s3.576,8,8,8h304c4.424,0,8-3.576,8-8S412.424,496,408,496z"/>
	</g>
</g>
<g>
	<g>
		<path d="M112,144c-4.424,0-8,3.576-8,8v160c0,4.424,3.576,8,8,8s8-3.576,8-8V152C120,147.576,116.424,144,112,144z"/>
	</g>
</g>
<g>
	<g>
		<path d="M400,144c-4.424,0-8,3.576-8,8v160c0,4.424,3.576,8,8,8s8-3.576,8-8V152C408,147.576,404.424,144,400,144z"/>
	</g>
</g>
<g>
	<g>
		<path d="M256,0c-4.424,0-8,3.576-8,8v104c0,4.424,3.576,8,8,8s8-3.576,8-8V8C264,3.576,260.424,0,256,0z"/>
	</g>
</g>
<g>
	<g>
		<path d="M256,104c-4.424,0-8,3.576-8,8c0,74.992-61.008,136-136,136c-4.424,0-8,3.576-8,8s3.576,8,8,8
			c83.816,0,152-68.184,152-152C264,107.576,260.424,104,256,104z"/>
	</g>
</g>
<g>
	<g>
		<path d="M400,248c-74.992,0-136-61.008-136-136c0-4.424-3.576-8-8-8s-8,3.576-8,8c0,83.816,68.184,152,152,152
			c4.424,0,8-3.576,8-8S404.424,248,400,248z"/>
	</g>
</g>
<g>
	<g>
		<path d="M352,239.808c-4.424,0-8,3.576-8,8V312c0,4.424,3.576,8,8,8s8-3.576,8-8v-64.192C360,243.384,356.424,239.808,352,239.808
			z"/>
	</g>
</g>
<g>
	<g>
		<path d="M160,239.808c-4.424,0-8,3.576-8,8V312c0,4.424,3.576,8,8,8s8-3.576,8-8v-64.192C168,243.384,164.424,239.808,160,239.808
			z"/>
	</g>
</g>
<g>
	<g>
		<path d="M56,240c-13.232,0-24,10.768-24,24s10.768,24,24,24s24-10.768,24-24S69.232,240,56,240z M56,272c-4.416,0-8-3.584-8-8
			c0-4.416,3.584-8,8-8s8,3.584,8,8C64,268.416,60.416,272,56,272z"/>
	</g>
</g>
<g>
	<g>
		<path d="M456,240c-13.232,0-24,10.768-24,24s10.768,24,24,24s24-10.768,24-24S469.232,240,456,240z M456,272c-4.416,0-8-3.584-8-8
			c0-4.416,3.584-8,8-8c4.416,0,8,3.584,8,8C464,268.416,460.416,272,456,272z"/>
	</g>
</g>
<g>
	<g>
		<path d="M56,272c-4.424,0-8,3.576-8,8v200c0,4.424,3.576,8,8,8s8-3.576,8-8V280C64,275.576,60.424,272,56,272z"/>
	</g>
</g>
<g>
	<g>
		<path d="M456,272c-4.424,0-8,3.576-8,8v200c0,4.424,3.576,8,8,8s8-3.576,8-8V280C464,275.576,460.424,272,456,272z"/>
	</g>
</g>
<g>
</g>
<g>
</g>
<g>
</g>
<g>
</g>
<g>
</g>
<g>
</g>
<g>
</g>
<g>
</g>
<g>
</g>
<g>
</g>
<g>
</g>
<g>
</g>
<g>
</g>
<g>
</g>
<g>
</g>
</svg>
