<?xml version="1.0" encoding="iso-8859-1"?>
<!-- Generator: Adobe Illustrator 19.0.0, SVG Export Plug-In . SVG Version: 6.00 Build 0)  -->
<svg version="1.1" id="Capa_1" xmlns="http://www.w3.org/2000/svg" xmlns:xlink="http://www.w3.org/1999/xlink" x="0px" y="0px"
	 viewBox="0 0 480.001 480.001" style="enable-background:new 0 0 480.001 480.001;" xml:space="preserve">
<g>
	<g>
		<g>
			<path d="M473.009,47.137c-4.462-4.594-10.604-7.17-17.008-7.136h-34.4c-2.567-8.912-7.37-17.019-13.952-23.552
				C397.183,5.857,382.891-0.072,368.001,0.001h-256c-24.733,0.053-46.511,16.305-53.6,40h-34.4c-13.255,0-24,10.745-24,24
				c-0.048,6.336,2.475,12.421,6.992,16.864c4.463,4.592,10.604,7.168,17.008,7.136h32v272c0,4.418,3.582,8,8,8h88v104
				c0,4.418,3.582,8,8,8h256c4.418,0,8-3.582,8-8v-384h32c13.255,0,24-10.745,24-24C480.048,57.665,477.526,51.58,473.009,47.137z
				 M56.001,72.001h-32c-2.156,0.007-4.218-0.879-5.696-2.448c-1.493-1.459-2.325-3.465-2.304-5.552c0-4.418,3.582-8,8-8h32V72.001z
				 M334.721,33.881c0.136-0.216,0.304-0.408,0.448-0.624c1.288-1.859,2.73-3.607,4.312-5.224l0.472-0.488
				c3.513-3.455,7.629-6.237,12.144-8.208c0.36-0.152,0.728-0.272,1.088-0.416c1.86-0.735,3.772-1.331,5.72-1.784
				c0.592-0.136,1.176-0.288,1.768-0.392c12.974-2.57,26.37,1.575,35.624,11.024c3.556,3.503,6.408,7.655,8.4,12.232h-73.304
				C332.319,37.867,333.432,35.818,334.721,33.881z M72.001,56.001c0.026-22.08,17.92-39.974,40-40h0h216.752
				c-5.08,4.982-9.154,10.895-12,17.416c-0.248,0.568-0.472,1.144-0.704,1.72c-0.36,0.92-0.712,1.832-1.032,2.776
				c-0.32,0.944-0.632,1.968-0.912,2.968c-0.144,0.528-0.28,1.056-0.416,1.6s-0.24,0.856-0.336,1.296
				c-0.851,1.247-1.32,2.715-1.352,4.224v200.752c-6.684,1.41-12.917,4.45-18.144,8.848c-9.384,8.535-23.72,8.535-33.104,0
				c-15.079-12.8-37.209-12.8-52.288,0c-9.363,8.535-23.685,8.535-33.048,0c-15.064-12.8-37.184-12.8-52.248,0
				c-9.36,8.534-23.68,8.534-33.04,0c-5.224-4.394-11.45-7.433-18.128-8.848V56.001z M72.001,265.361
				c3.08,1.237,5.953,2.937,8.52,5.04c15.067,12.802,37.189,12.802,52.256,0c9.36-8.534,23.68-8.534,33.04,0
				c15.064,12.8,37.184,12.8,52.248,0c9.382-8.534,23.714-8.534,33.096,0c15.079,12.8,37.209,12.8,52.288,0
				c2.578-2.106,5.462-3.808,8.552-5.048v15.4c-6.684,1.41-12.917,4.45-18.144,8.848c-9.384,8.535-23.72,8.535-33.104,0
				c-15.079-12.8-37.209-12.8-52.288,0c-9.363,8.535-23.685,8.535-33.048,0c-15.064-12.8-37.184-12.8-52.248,0
				c-9.36,8.534-23.68,8.534-33.04,0c-5.224-4.394-11.45-7.433-18.128-8.848L72.001,265.361z M72.001,352.001v-54.64
				c3.08,1.237,5.953,2.937,8.52,5.04c15.067,12.802,37.189,12.802,52.256,0c9.36-8.534,23.68-8.534,33.04,0
				c15.064,12.8,37.184,12.8,52.248,0c9.382-8.534,23.714-8.534,33.096,0c15.079,12.8,37.209,12.8,52.288,0
				c2.578-2.106,5.462-3.808,8.552-5.048v54.648H72.001z M408.001,464.001h-240v-16h168c4.418,0,8-3.582,8-8s-3.582-8-8-8h-168v-64
				h152c4.418,0,8-3.582,8-8v-272h80V464.001z M456.001,72.001h-128v-16h128c2.156-0.007,4.218,0.879,5.696,2.448
				c1.493,1.459,2.325,3.465,2.304,5.552C464.001,68.419,460.419,72.001,456.001,72.001z"/>
			<path d="M368.001,448.001h16c4.418,0,8-3.582,8-8s-3.582-8-8-8h-16c-4.418,0-8,3.582-8,8S363.582,448.001,368.001,448.001z"/>
		</g>
	</g>
</g>
<g>
</g>
<g>
</g>
<g>
</g>
<g>
</g>
<g>
</g>
<g>
</g>
<g>
</g>
<g>
</g>
<g>
</g>
<g>
</g>
<g>
</g>
<g>
</g>
<g>
</g>
<g>
</g>
<g>
</g>
</svg>
