<?xml version="1.0"?>
<svg xmlns="http://www.w3.org/2000/svg" viewBox="0 0 50 50">
    <path d="M 3 2 C 2.75 2 2.5125 2.1125 2.3125 2.3125 C 1.9125 2.7125 1.9125 3.2875 2.3125 3.6875 L 4 5.5 L 4 44.5 L 2.3125 46.3125 C 1.9125 46.7125 1.9125 47.2875 2.3125 47.6875 C 2.5125 47.8875 2.8 48 3 48 C 3.3 48 3.4875 47.8875 3.6875 47.6875 L 20.40625 30 L 29.5 30 L 46.1875 47.6875 C 46.3875 47.8875 46.70625 48 46.90625 48 C 47.00625 48 47.125 47.9875 47.25 47.9375 C 47.375 47.8875 47.49375 47.7875 47.59375 47.6875 C 47.69375 47.5875 47.7625 47.49375 47.8125 47.375 C 47.9625 47.01875 47.89375 46.6125 47.59375 46.3125 L 46 44.5 L 46 5.5 L 47.6875 3.6875 C 48.0875 3.2875 48.0875 2.7125 47.6875 2.3125 C 47.3875 2.0125 46.98125 1.9125 46.625 2.0625 C 46.50625 2.1125 46.4125 2.2125 46.3125 2.3125 L 33.375 16 L 33.1875 16.1875 C 33.179365 16.199122 33.163864 16.206682 33.15625 16.21875 L 29.59375 20 L 20.5 20 L 3.6875 2.3125 C 3.4875 2.1125 3.25 2 3 2 z M 10 11.84375 L 12 13.96875 L 12 36.03125 L 10 38.15625 L 10 11.84375 z M 40 11.84375 L 40 38.15625 L 38 36.03125 L 38 13.96875 L 40 11.84375 z M 15 17.15625 L 17 19.28125 L 17 30.71875 L 15 32.84375 L 15 17.15625 z M 35 17.15625 L 35 32.84375 L 33 30.71875 L 33 19.28125 L 35 17.15625 z M 21 22 L 29 22 L 29 28 L 21 28 L 21 22 z"/>
</svg>
