<svg height="512pt" viewBox="0 0 512 512" width="512pt" xmlns="http://www.w3.org/2000/svg"><path d="m352.3125 471.078125v-401.214844h-352.3125v441.136719h512v-39.921875zm-312.390625-361.292969h116.773437v361.292969h-116.773437zm272.46875 361.292969h-115.773437v-361.292969h115.773437zm98.449219-207.863281-28.230469-28.230469 64.019531-64.015625 64.019532 64.015625-28.230469 28.230469-35.789063-35.785156zm-255.144532-243.253906c0-11.023438 8.9375-19.960938 19.960938-19.960938s19.960938 8.9375 19.960938 19.960938c0 11.023437-8.9375 19.960937-19.960938 19.960937s-19.960938-8.9375-19.960938-19.960937zm-69.863281 0c0-11.023438 8.9375-19.960938 19.960938-19.960938 11.023437 0 19.960937 8.9375 19.960937 19.960938 0 11.023437-8.9375 19.960937-19.960937 19.960937-11.023438 0-19.960938-8.9375-19.960938-19.960937zm-69.863281 0c0-11.023438 8.9375-19.960938 19.960938-19.960938 11.023437 0 19.960937 8.9375 19.960937 19.960938 0 11.023437-8.9375 19.960937-19.960937 19.960937-11.023438 0-19.960938-8.9375-19.960938-19.960937zm209.589844 0c0-11.023438 8.9375-19.960938 19.960937-19.960938 11.027344 0 19.960938 8.9375 19.960938 19.960938 0 11.023437-8.933594 19.960937-19.960938 19.960937-11.023437 0-19.960937-8.9375-19.960937-19.960937zm69.863281 0c0-11.023438 8.9375-19.960938 19.960937-19.960938 11.027344 0 19.960938 8.9375 19.960938 19.960938 0 11.023437-8.933594 19.960937-19.960938 19.960937-11.023437 0-19.960937-8.9375-19.960937-19.960937zm151.207031 365.570312-64.019531-64.015625 28.230469-28.230469 35.785156 35.789063 35.789062-35.789063 28.230469 28.230469zm0 0"/></svg>