<svg height="512pt" viewBox="0 0 512 512" width="512pt" xmlns="http://www.w3.org/2000/svg"><path d="m15 91c8.285156 0 15-6.714844 15-15v-46h46c8.285156 0 15-6.714844 15-15s-6.714844-15-15-15h-61c-8.285156 0-15 6.714844-15 15v61c0 8.285156 6.714844 15 15 15zm0 0"/><path d="m497 0h-61c-8.285156 0-15 6.714844-15 15s6.714844 15 15 15h46v46c0 8.285156 6.714844 15 15 15s15-6.714844 15-15v-61c0-8.285156-6.714844-15-15-15zm0 0"/><path d="m15 512h61c8.285156 0 15-6.714844 15-15s-6.714844-15-15-15h-46v-46c0-8.285156-6.714844-15-15-15s-15 6.714844-15 15v61c0 8.285156 6.714844 15 15 15zm0 0"/><path d="m497 421c-8.285156 0-15 6.714844-15 15v46h-46c-8.285156 0-15 6.714844-15 15s6.714844 15 15 15h61c8.285156 0 15-6.714844 15-15v-61c0-8.285156-6.714844-15-15-15zm0 0"/><path d="m116.605469 176.605469c5.179687-5.179688 12.070312-8.03125 19.394531-8.03125s14.214844 2.851562 19.394531 8.03125c5.855469 5.859375 15.351563 5.859375 21.210938 0s5.859375-15.355469 0-21.210938c-10.84375-10.847656-25.265625-16.820312-40.605469-16.820312s-29.757812 5.972656-40.605469 16.820312c-5.859375 5.855469-5.859375 15.351563 0 21.210938 5.855469 5.859375 15.355469 5.859375 21.210938 0zm0 0"/><path d="m236.605469 176.605469c5.179687-5.179688 12.070312-8.03125 19.394531-8.03125s14.214844 2.851562 19.394531 8.03125c5.855469 5.859375 15.351563 5.859375 21.210938 0s5.859375-15.355469 0-21.210938c-10.84375-10.847656-25.265625-16.820312-40.605469-16.820312s-29.757812 5.972656-40.605469 16.820312c-5.859375 5.855469-5.859375 15.351563 0 21.210938 5.855469 5.859375 15.355469 5.859375 21.210938 0zm0 0"/><path d="m346 271c-24.8125 0-45 20.1875-45 45s20.1875 45 45 45 45-20.1875 45-45-20.1875-45-45-45zm0 60c-8.269531 0-15-6.730469-15-15s6.730469-15 15-15 15 6.730469 15 15-6.730469 15-15 15zm0 0"/><path d="m406 181c-8.285156 0-15 6.714844-15 15v15h-30.6875c-7.605469-83.976562-78.386719-150-164.3125-150-91.53125 0-166 74.019531-166 165s74.46875 165 166 165c5.011719 0 10.019531-.238281 15-.6875v15.6875c0 8.285156 6.714844 15 15 15h241c8.285156 0 15-6.714844 15-15v-180c0-8.285156-6.714844-15-15-15h-46v-15c0-8.285156-6.714844-15-15-15zm-210 180c-74.992188 0-136-60.5625-136-135s61.007812-135 136-135c69.367188 0 126.675781 52.59375 134.160156 120-6.6875 0-211.832031 0-224.160156 0-8.285156 0-15 6.714844-15 15 0 57.898438 47.101562 105 105 105 5.046875 0 10.054688-.378906 15-1.089844v30.253906c-4.96875.550782-9.980469.835938-15 .835938zm15-61.519531c-4.910156 1-9.925781 1.519531-15 1.519531-36.21875 0-66.523438-25.808594-73.492188-60h88.492188zm241 91.519531h-211v-150h211zm0 0"/></svg>