<svg height="480pt" viewBox="-31 0 479 480" width="480pt" xmlns="http://www.w3.org/2000/svg"><path d="m272.5 80h16v128h-256c-17.671875 0-32 14.328125-32 32s14.328125 32 32 32h4l43.695312 58.261719-16.632812 149.738281h257.875l-15.996094-144h23.058594c39.746094-.042969 71.957031-32.253906 72-72v-184h16v-80h-144zm-256 160c.011719-8.832031 7.167969-15.988281 16-16h256v32h-256c-8.832031-.011719-15.988281-7.167969-16-16zm272 32v48h-196l-36-48zm-207.0625 192 14.226562-128h193.671876l14.226562 128zm303.0625-320v120c-.039062 30.914062-25.085938 55.960938-56 56h-24v-240h80zm-96-128h112v48h-112zm0 0"/><path d="m360.5 120c-10.136719.03125-19.15625 6.4375-22.527344 16h-25.472656v16h25.476562c4.085938 11.472656 16.136719 18.054688 28 15.292969 11.863282-2.765625 19.765626-13.992188 18.363282-26.089844-1.398438-12.101563-11.660156-21.222656-23.839844-21.203125zm0 32c-4.417969 0-8-3.582031-8-8s3.582031-8 8-8 8 3.582031 8 8c-.003906 4.417969-3.582031 7.996094-8 8zm0 0"/><path d="m376.5 32h16v16h-16zm0 0"/><path d="m368.5 256v-32h-16v32c-.019531 17.664062-14.335938 31.980469-32 32v16c26.496094-.027344 47.972656-21.503906 48-48zm0 0"/><path d="m352.5 192h16v16h-16zm0 0"/><path d="m256.53125 352.726562 7.207031 79.273438h-39.238281v16h56.761719l-8.792969-96.726562zm0 0"/><path d="m32.5 184c0 4.417969 3.582031 8 8 8s8-3.582031 8-8c.015625-13.25 10.75-23.984375 24-24 4.417969 0 8-3.582031 8-8s-3.582031-8-8-8c-13.25-.015625-23.984375-10.75-24-24 0-4.417969-3.582031-8-8-8s-8 3.582031-8 8c-.015625 13.25-10.75 23.984375-24 24-4.417969 0-8 3.582031-8 8s3.582031 8 8 8c13.25.015625 23.984375 10.75 24 24zm8-40.246094c2.332031 3.132813 5.113281 5.914063 8.246094 8.246094-3.132813 2.332031-5.914063 5.113281-8.246094 8.246094-2.332031-3.132813-5.113281-5.914063-8.246094-8.246094 3.132813-2.332031 5.914063-5.113281 8.246094-8.246094zm0 0"/><path d="m208.5 120c0 4.417969 3.582031 8 8 8s8-3.582031 8-8c.015625-13.25 10.75-23.984375 24-24 4.417969 0 8-3.582031 8-8s-3.582031-8-8-8c-13.25-.015625-23.984375-10.75-24-24 0-4.417969-3.582031-8-8-8s-8 3.582031-8 8c-.015625 13.25-10.75 23.984375-24 24-4.417969 0-8 3.582031-8 8s3.582031 8 8 8c13.25.015625 23.984375 10.75 24 24zm8-40.246094c2.332031 3.132813 5.113281 5.914063 8.246094 8.246094-3.132813 2.332031-5.914063 5.113281-8.246094 8.246094-2.332031-3.132813-5.113281-5.914063-8.246094-8.246094 3.132813-2.332031 5.914063-5.113281 8.246094-8.246094zm0 0"/></svg>