<?xml version="1.0" encoding="iso-8859-1"?>
<!-- Generator: Adobe Illustrator 19.0.0, SVG Export Plug-In . SVG Version: 6.00 Build 0)  -->
<svg version="1.1" id="Capa_1" xmlns="http://www.w3.org/2000/svg" xmlns:xlink="http://www.w3.org/1999/xlink" x="0px" y="0px"
	 viewBox="0 0 512 512" style="enable-background:new 0 0 512 512;" xml:space="preserve">
<g>
	<g>
		<g>
			<path d="M494.933,417.784V119.117c-0.015-14.132-11.468-25.585-25.6-25.6h-76.8c-4.713,0-8.533,3.82-8.533,8.533
				s3.821,8.533,8.533,8.533h76.8c4.711,0.003,8.53,3.822,8.533,8.533v298.667H460.8V144.717
				c-0.012-9.421-7.646-17.054-17.067-17.067H358.4c-4.713,0-8.533,3.821-8.533,8.533s3.82,8.533,8.533,8.533h85.333v273.067H68.267
				V144.717H153.6c4.713,0,8.533-3.82,8.533-8.533s-3.821-8.533-8.533-8.533H68.267c-9.421,0.012-17.054,7.646-17.067,17.067
				v273.067H34.133V119.117c0.003-4.712,3.822-8.53,8.533-8.533h76.8c4.713,0,8.533-3.82,8.533-8.533s-3.82-8.533-8.533-8.533h-76.8
				c-14.132,0.015-25.585,11.468-25.6,25.6v298.667C7.646,417.796,0.012,425.43,0,434.85v34.133
				c0.028,23.553,19.114,42.639,42.667,42.667h426.667c23.553-0.028,42.639-19.114,42.667-42.667V434.85
				C511.988,425.43,504.354,417.796,494.933,417.784z M327.525,434.85l-6.175,12.35c-1.436,2.9-4.397,4.73-7.633,4.717H198.283
				c-3.236,0.013-6.198-1.817-7.633-4.717l-6.175-12.35H327.525z M494.933,451.917h-93.867c-4.713,0-8.533,3.821-8.533,8.533
				s3.821,8.533,8.533,8.533h93.867c-0.015,14.132-11.468,25.585-25.6,25.6H42.667c-14.132-0.015-25.585-11.468-25.6-25.6h93.867
				c4.713,0,8.533-3.82,8.533-8.533s-3.82-8.533-8.533-8.533H17.067V434.85h148.325l9.992,19.983
				c4.314,8.694,13.194,14.181,22.9,14.15h115.433c9.706,0.031,18.586-5.456,22.9-14.15l9.992-19.983h148.325V451.917z"/>
			<path d="M153.6,451.917h-8.533c-4.713,0-8.533,3.821-8.533,8.533s3.82,8.533,8.533,8.533h8.533c4.713,0,8.533-3.82,8.533-8.533
				S158.313,451.917,153.6,451.917z"/>
			<path d="M358.4,468.984h8.533c4.713,0,8.533-3.82,8.533-8.533s-3.82-8.533-8.533-8.533H358.4c-4.713,0-8.533,3.821-8.533,8.533
				S353.687,468.984,358.4,468.984z"/>
			<path d="M147.391,91.458c3.386,3.2,8.681,3.2,12.067,0c53.354-53.234,139.73-53.234,193.084,0c1.6,1.601,3.77,2.5,6.033,2.5
				c2.263,0,4.433-0.899,6.033-2.5l24.142-24.142c1.601-1.6,2.5-3.77,2.5-6.033s-0.899-4.433-2.5-6.033
				c-73.364-73.2-192.136-73.2-265.5,0c-1.601,1.6-2.5,3.77-2.5,6.033s0.899,4.433,2.5,6.033L147.391,91.458z M370.5,61.433
				l-12.092,12.092c-58.341-52.078-146.476-52.078-204.817,0L141.5,61.433C206.548,2.734,305.451,2.734,370.5,61.433z"/>
			<path d="M310.308,142.225c2.263,0,4.433-0.899,6.033-2.5l24.133-24.133c1.601-1.6,2.5-3.77,2.5-6.033s-0.899-4.433-2.5-6.033
				c-46.684-46.583-122.266-46.583-168.95,0c-1.601,1.6-2.5,3.77-2.5,6.033s0.899,4.433,2.5,6.033l24.133,24.133
				c1.6,1.601,3.77,2.5,6.033,2.5s4.433-0.899,6.033-2.5c26.68-26.617,69.87-26.617,96.55,0
				C305.875,141.326,308.045,142.225,310.308,142.225z M201.992,121.925l-12.117-12.117c38.2-32.208,94.049-32.208,132.25,0
				l-12.116,12.117C278.565,96.292,233.435,96.292,201.992,121.925z"/>
			<path d="M213.333,178.85c0,23.564,19.102,42.667,42.667,42.667s42.667-19.103,42.667-42.667S279.564,136.183,256,136.183
				C232.447,136.211,213.361,155.298,213.333,178.85z M281.6,178.85c0,14.138-11.462,25.6-25.6,25.6s-25.6-11.461-25.6-25.6
				s11.461-25.6,25.6-25.6C270.132,153.266,281.585,164.718,281.6,178.85z"/>
		</g>
	</g>
</g>
<g>
</g>
<g>
</g>
<g>
</g>
<g>
</g>
<g>
</g>
<g>
</g>
<g>
</g>
<g>
</g>
<g>
</g>
<g>
</g>
<g>
</g>
<g>
</g>
<g>
</g>
<g>
</g>
<g>
</g>
</svg>
